<svg width="100" height="110" xmlns="http://www.w3.org/2000/svg">
 <!-- Created with Method Draw - http://github.com/duopixel/Method-Draw/ -->

 <g>
  <title>background</title>
  <rect fill="#fff" id="canvas_background" height="112" width="102" y="-1" x="-1"/>
  <g display="none" id="canvasGrid">
   <rect fill="url(#gridpattern)" stroke-width="0" y="0" x="0" height="100%" width="100%" id="svg_6"/>
  </g>
 </g>
 <g>
  <title>Layer 1</title>
  <path stroke="#000" d="m21.401673,18.924376c0.633891,0 1.901673,0 3.803346,0c0.633891,0 1.901673,0 2.535564,0c0.633891,0 1.996345,-0.355581 2.535564,0c1.205737,0.795105 1.267782,1.352714 1.901673,1.352714c0.633891,0 1.073456,0.310313 1.901673,0.676357c0.585633,0.258828 1.267782,0 1.901673,0.676357c0,0 0.18566,0.198098 0.633891,0.676357c0.448231,0.478259 0,0.676357 0,1.352714c0,0.676357 0,0.676357 0,1.352714c0,0.676357 0,1.352714 0,2.029071c0,0 0,0.676357 0,1.352714c0,0.676357 0,0.676357 0,1.352714c0,0.676357 -0.18566,0.874455 -0.633891,1.352714c-0.448231,0.478259 -0.633891,0.676357 -0.633891,1.352714c0,0 0.111723,1.005242 -1.267782,1.352714c-0.616934,0.155393 -0.819551,0.198098 -1.267782,0.676357c-0.448231,0.478259 -0.18566,0.874455 -0.633891,1.352714c-0.448231,0.478259 -0.819551,0.198098 -1.267782,0.676357c-0.448231,0.478259 -1.267782,0 -1.901673,0c0,0 -0.633891,0 -1.267782,0c0,0 -0.633891,0 -1.267782,0c-0.633891,0 -0.819551,0.478259 -1.267782,0c-0.448231,-0.478259 -0.18566,-0.874455 -0.633891,-1.352714c-0.448231,-0.478259 -1.082122,-0.874455 -0.633891,-1.352714c0.448231,-0.478259 1.267782,0 1.267782,0c0,-0.676357 1.267782,-0.676357 1.901673,-0.676357c0.633891,0 1.267782,0 1.901673,0c0.633891,0 1.267782,0 1.901673,0c0.633891,0 1.267782,0 1.901673,0c0.633891,0 1.267782,0 1.267782,0c0,0.676357 0.391307,0.727841 0.633891,1.352714c0.343062,0.883701 0.92472,0.469013 1.267782,1.352714c0.242584,0.624873 0.18566,0.874455 0.633891,1.352714c0.448231,0.478259 0,1.352714 0,2.029071c0,0 0,0.676357 0,1.352714c0,0 0,0.676357 0,1.352714c0,0.676357 0,0.676357 0,1.352714c0,0.676357 -0.633891,0.676357 -0.633891,1.352714c0,0 -0.18566,0.198098 -0.633891,0.676357c-0.448231,0.478259 -0.819551,0.198098 -1.267782,0.676357c-0.448231,0.478259 0.194326,0.98667 -0.633891,1.352714c-0.585633,0.258835 -0.819551,0.198098 -1.267782,0.676357c-0.448231,0.478259 -1.073456,0.310313 -1.901673,0.676357c-0.585633,0.258835 -1.31604,0.417522 -1.901673,0.676357c-0.828217,0.366044 -1.267782,0.676357 -1.267782,0.676357c-0.633891,0 -1.267782,0 -1.267782,0c0,0.676357 -0.633891,0.676357 -1.267782,0.676357c-0.633891,0 -1.267782,0 -1.267782,-0.676357c0,-0.676357 0,-0.676357 0,-1.352714c0,-0.676357 0.819551,-0.198098 1.267782,-0.676357c0.448231,-0.478259 0.633891,-0.676357 1.267782,-0.676357c0.633891,0 0.18566,-0.198098 0.633891,-0.676357c0.448231,-0.478259 1.267782,0 1.901673,0c0,0 0.633891,0 1.267782,0c0,0 0.819551,-0.478259 1.267782,0c0.448231,0.478259 0.18566,0.874455 0.633891,1.352714c0.448231,0.478259 0.633891,0.676357 0.633891,1.352714c0,0.676357 0.391307,0.727848 0.633891,1.352714c0.343062,0.883701 0.391307,2.080562 0.633891,2.705428c0.343062,0.883701 0.633891,1.352714 0.633891,2.029071c0,0.676357 0.633891,0.676357 0.633891,1.352714c0,0.676357 0,0.676357 0,1.352714c0,0.676357 0,0.676357 0,1.352714c0,0.676357 0.448231,0.874455 0,1.352714c-0.448231,0.478259 -0.18566,0.874455 -0.633891,1.352714c-0.448231,0.478259 -0.819551,0.198098 -1.267782,0.676357c-0.448231,0.478259 -0.18566,0.874455 -0.633891,1.352714c-0.448231,0.478259 -0.819551,0.198098 -1.267782,0.676357c-0.448231,0.478259 -0.819551,0.198098 -1.267782,0.676357c-0.448231,0.478259 -0.633891,0.676357 -1.267782,0.676357c0,0 -0.633891,0 -1.267782,0c0,0 -0.633891,0 -1.267782,0c-0.633891,0 -0.819551,-0.198098 -1.267782,-0.676357c-0.448231,-0.478259 -0.391307,-1.404205 -0.633891,-2.029071c-0.343062,-0.883701 -1.082122,-0.874455 -0.633891,-1.352714c0.448231,-0.478259 1.267782,0 1.901673,0c0,0 0.633891,0 1.267782,0c0.633891,0 0.633891,0 1.267782,0c0.633891,0 0.633891,0 1.267782,0c0.633891,0 1.453442,-0.478259 1.901673,0c0.448231,0.478259 0.391307,0.727848 0.633891,1.352714c0.343062,0.883701 0.819551,0.874455 1.267782,1.352714c0.448231,0.478259 0.290829,0.469013 0.633891,1.352714c0.242584,0.624866 0.18566,0.874455 0.633891,1.352714c0.448231,0.478259 -0.448231,0.874455 0,1.352714c0.448231,0.478259 0.633891,0.676357 0.633891,1.352714c0,0.676357 0,0.676357 0,1.352714c0,0.676357 0.448231,1.550812 0,2.029071c-0.448231,0.478259 -0.391307,0.727848 -0.633891,1.352714c-0.343062,0.883701 -0.92472,0.469013 -1.267782,1.352714c-0.242584,0.624866 -0.819551,1.550812 -1.267782,2.029071c-0.448231,0.478259 -0.633891,0.676357 -1.267782,0.676357c-0.633891,0 -0.633891,0.676357 -1.267782,0.676357c-0.633891,0 -1.267782,0 -1.901673,0c-0.633891,0 -1.267782,0 -1.901673,0c0,0 -0.819551,0.478259 -1.267782,0c-0.448231,-0.478259 -0.18566,-0.874455 -0.633891,-1.352714c-0.448231,-0.478259 -0.819551,-0.198098 -1.267782,-0.676357c-0.448231,-0.478259 -0.633891,-0.676357 -0.633891,-1.352714c0,-0.676357 0,-1.352714 0,-1.352714c0,-0.676357 0.633891,-0.676357 1.267782,-0.676357c0,0 0.633891,-0.676357 1.901673,-0.676357c0.633891,0 1.267782,0 1.267782,0c0.633891,0 1.267782,0 1.901673,0c0,0 0.819551,-0.478259 1.267782,0c0.448231,0.478259 0.18566,0.874455 0.633891,1.352714c0.448231,0.478259 0.819551,0.198098 1.267782,0.676357c0.448231,0.478259 0.18566,0.874455 0.633891,1.352714c0.448231,0.478259 0.290829,1.14537 0.633891,2.029071c0.242584,0.624866 0,2.029071 0,2.705428c0,0 0,0.676357 0,1.352714c0,0.676357 0,0.676357 0,1.352714c0,0.676357 0,1.352714 0,1.352714c0,0.676357 0.242584,1.404205 0,2.029071c-0.343062,0.883701 -0.92472,1.14537 -1.267782,2.029071c-0.242584,0.624866 -0.18566,1.550812 -0.633891,2.029071c-0.448231,0.478259 -0.682149,0.417522 -1.267782,0.676357c-0.828217,0.366044 -1.267782,0.676357 -1.267782,0.676357c-0.633891,0 -0.633891,0.676357 -1.267782,0.676357c-0.633891,0 -0.633891,0 -1.267782,0c-0.633891,0 -0.633891,0 -1.267782,0c-0.633891,0 -1.267782,0 -1.901673,0c0,0 -0.633891,0 -1.267782,0l0,-0.676357l-0.633891,0l-0.633891,0" id="svg_1" stroke-width="1.5" fill="none"/>
  <line stroke="#000" stroke-linecap="undefined" stroke-linejoin="undefined" id="svg_2" y2="95" x2="44.5" y1="19.999998" x1="44.5" stroke-width="1.5" fill="none"/>
  <line stroke="#000" stroke-linecap="undefined" stroke-linejoin="undefined" id="svg_3" y2="95" x2="57.5" y1="22.000001" x1="57.5" stroke-width="1.5" fill="none"/>
  <path stroke="#000" transform="rotate(179.41510009765625 74.15713500976562,56.88317108154296) " d="m67.532906,17.878997c0.621577,0 1.864731,0 3.729461,0c0.621577,0 1.864731,0 2.486308,0c0.621577,0 1.957563,-0.370251 2.486308,0c1.182308,0.827907 1.243154,1.408521 1.864731,1.408521c0.621577,0 1.052603,0.323115 1.864731,0.70426c0.574256,0.269506 1.243154,0 1.864731,0.70426c0,0 0.182054,0.206271 0.621577,0.70426c0.439523,0.49799 0,0.70426 0,1.408521c0,0.70426 0,0.70426 0,1.408521c0,0.70426 0,1.408521 0,2.112781c0,0 0,0.70426 0,1.408521c0,0.70426 0,0.70426 0,1.408521c0,0.70426 -0.182054,0.910531 -0.621577,1.408521c-0.439523,0.49799 -0.621577,0.70426 -0.621577,1.408521c0,0 0.109553,1.046714 -1.243154,1.408521c-0.60495,0.161804 -0.803631,0.206271 -1.243154,0.70426c-0.439523,0.49799 -0.182054,0.910531 -0.621577,1.408521c-0.439523,0.49799 -0.803631,0.206271 -1.243154,0.70426c-0.439523,0.49799 -1.243154,0 -1.864731,0c0,0 -0.621577,0 -1.243154,0c0,0 -0.621577,0 -1.243154,0c-0.621577,0 -0.803631,0.49799 -1.243154,0c-0.439523,-0.49799 -0.182054,-0.910531 -0.621577,-1.408521c-0.439523,-0.49799 -1.0611,-0.910531 -0.621577,-1.408521c0.439523,-0.49799 1.243154,0 1.243154,0c0,-0.70426 1.243154,-0.70426 1.864731,-0.70426c0.621577,0 1.243154,0 1.864731,0c0.621577,0 1.243154,0 1.864731,0c0.621577,0 1.243154,0 1.864731,0c0.621577,0 1.243154,0 1.243154,0c0,0.70426 0.383706,0.757869 0.621577,1.408521c0.336397,0.920158 0.906756,0.488362 1.243154,1.408521c0.237871,0.650652 0.182054,0.910531 0.621577,1.408521c0.439523,0.49799 0,1.408521 0,2.112781c0,0 0,0.70426 0,1.408521c0,0 0,0.70426 0,1.408521c0,0.70426 0,0.70426 0,1.408521c0,0.70426 -0.621577,0.70426 -0.621577,1.408521c0,0 -0.182054,0.206271 -0.621577,0.70426c-0.439523,0.49799 -0.803631,0.206271 -1.243154,0.70426c-0.439523,0.49799 0.190551,1.027375 -0.621577,1.408521c-0.574256,0.269513 -0.803631,0.206271 -1.243154,0.70426c-0.439523,0.49799 -1.052603,0.323115 -1.864731,0.70426c-0.574256,0.269513 -1.290474,0.434747 -1.864731,0.70426c-0.812128,0.381146 -1.243154,0.70426 -1.243154,0.70426c-0.621577,0 -1.243154,0 -1.243154,0c0,0.70426 -0.621577,0.70426 -1.243154,0.70426c-0.621577,0 -1.243154,0 -1.243154,-0.70426c0,-0.70426 0,-0.70426 0,-1.408521c0,-0.70426 0.803631,-0.206271 1.243154,-0.70426c0.439523,-0.49799 0.621577,-0.70426 1.243154,-0.70426c0.621577,0 0.182054,-0.206271 0.621577,-0.70426c0.439523,-0.49799 1.243154,0 1.864731,0c0,0 0.621577,0 1.243154,0c0,0 0.803631,-0.49799 1.243154,0c0.439523,0.49799 0.182054,0.910531 0.621577,1.408521c0.439523,0.49799 0.621577,0.70426 0.621577,1.408521c0,0.70426 0.383706,0.757876 0.621577,1.408521c0.336397,0.920158 0.383706,2.166397 0.621577,2.817042c0.336397,0.920158 0.621577,1.408521 0.621577,2.112781c0,0.70426 0.621577,0.70426 0.621577,1.408521c0,0.70426 0,0.70426 0,1.408521c0,0.70426 0,0.70426 0,1.408521c0,0.70426 0.439523,0.910531 0,1.408521c-0.439523,0.49799 -0.182054,0.910531 -0.621577,1.408521c-0.439523,0.49799 -0.803631,0.206271 -1.243154,0.70426c-0.439523,0.49799 -0.182054,0.910531 -0.621577,1.408521c-0.439523,0.49799 -0.803631,0.206271 -1.243154,0.70426c-0.439523,0.49799 -0.803631,0.206271 -1.243154,0.70426c-0.439523,0.49799 -0.621577,0.70426 -1.243154,0.70426c0,0 -0.621577,0 -1.243154,0c0,0 -0.621577,0 -1.243154,0c-0.621577,0 -0.803631,-0.206271 -1.243154,-0.70426c-0.439523,-0.49799 -0.383706,-1.462136 -0.621577,-2.112781c-0.336397,-0.920158 -1.0611,-0.910531 -0.621577,-1.408521c0.439523,-0.49799 1.243154,0 1.864731,0c0,0 0.621577,0 1.243154,0c0.621577,0 0.621577,0 1.243154,0c0.621577,0 0.621577,0 1.243154,0c0.621577,0 1.425207,-0.49799 1.864731,0c0.439523,0.49799 0.383706,0.757876 0.621577,1.408521c0.336397,0.920158 0.803631,0.910531 1.243154,1.408521c0.439523,0.49799 0.285179,0.488362 0.621577,1.408521c0.237871,0.650645 0.182054,0.910531 0.621577,1.408521c0.439523,0.49799 -0.439523,0.910531 0,1.408521c0.439523,0.49799 0.621577,0.70426 0.621577,1.408521c0,0.70426 0,0.70426 0,1.408521c0,0.70426 0.439523,1.614792 0,2.112781c-0.439523,0.49799 -0.383706,0.757876 -0.621577,1.408521c-0.336397,0.920158 -0.906756,0.488362 -1.243154,1.408521c-0.237871,0.650645 -0.803631,1.614792 -1.243154,2.112781c-0.439523,0.49799 -0.621577,0.70426 -1.243154,0.70426c-0.621577,0 -0.621577,0.70426 -1.243154,0.70426c-0.621577,0 -1.243154,0 -1.864731,0c-0.621577,0 -1.243154,0 -1.864731,0c0,0 -0.803631,0.49799 -1.243154,0c-0.439523,-0.49799 -0.182054,-0.910531 -0.621577,-1.408521c-0.439523,-0.49799 -0.803631,-0.206271 -1.243154,-0.70426c-0.439523,-0.49799 -0.621577,-0.70426 -0.621577,-1.408521c0,-0.70426 0,-1.408521 0,-1.408521c0,-0.70426 0.621577,-0.70426 1.243154,-0.70426c0,0 0.621577,-0.70426 1.864731,-0.70426c0.621577,0 1.243154,0 1.243154,0c0.621577,0 1.243154,0 1.864731,0c0,0 0.803631,-0.49799 1.243154,0c0.439523,0.49799 0.182054,0.910531 0.621577,1.408521c0.439523,0.49799 0.803631,0.206271 1.243154,0.70426c0.439523,0.49799 0.182054,0.910531 0.621577,1.408521c0.439523,0.49799 0.285179,1.192623 0.621577,2.112781c0.237871,0.650645 0,2.112781 0,2.817042c0,0 0,0.70426 0,1.408521c0,0.70426 0,0.70426 0,1.408521c0,0.70426 0,1.408521 0,1.408521c0,0.70426 0.237871,1.462136 0,2.112781c-0.336397,0.920158 -0.906756,1.192623 -1.243154,2.112781c-0.237871,0.650645 -0.182054,1.614792 -0.621577,2.112781c-0.439523,0.49799 -0.668898,0.434747 -1.243154,0.70426c-0.812128,0.381146 -1.243154,0.70426 -1.243154,0.70426c-0.621577,0 -0.621577,0.70426 -1.243154,0.70426c-0.621577,0 -0.621577,0 -1.243154,0c-0.621577,0 -0.621577,0 -1.243154,0c-0.621577,0 -1.243154,0 -1.864731,0c0,0 -0.621577,0 -1.243154,0l0,-0.70426l-0.621577,0l-0.621577,0" id="svg_4" stroke-width="1.5" fill="none"/>
  <rect stroke="#000" id="svg_5" height="89.999997" width="75.000003" y="11.000001" x="13.499999" fill-opacity="null" stroke-opacity="null" stroke-width="1.5" fill="none"/>
 </g>
</svg>