<svg width="580" height="400" xmlns="http://www.w3.org/2000/svg">
 <!-- Created with Method Draw - http://github.com/duopixel/Method-Draw/ -->
 <g>
  <title>background</title>
  <rect fill="#fff" id="canvas_background" height="402" width="582" y="-1" x="-1"/>
  <g display="none" overflow="visible" y="0" x="0" height="100%" width="100%" id="canvasGrid">
   <rect fill="url(#gridpattern)" stroke-width="0" y="0" x="0" height="100%" width="100%"/>
  </g>
 </g>
 <g>
  <title>Layer 1</title>
  <path d="m153.5,98c1,0 3,0 6,0c1,0 3,0 4,0c1,0 3.149353,-0.525734 4,0c1.902115,1.175568 2,2 3,2c1,0 1.693436,0.458801 3,1c0.923874,0.382683 2,0 3,1c0,0 0.292892,0.292892 1,1c0.707108,0.707108 0,1 0,2c0,1 0,1 0,2c0,1 0,2 0,3c0,0 0,1 0,2c0,1 0,1 0,2c0,1 -0.292892,1.292892 -1,2c-0.707108,0.707108 -1,1 -1,2c0,0 0.176254,1.486259 -2,2c-0.973251,0.229752 -1.292892,0.292892 -2,1c-0.707108,0.707108 -0.292892,1.292892 -1,2c-0.707108,0.707108 -1.292892,0.292892 -2,1c-0.707108,0.707108 -2,0 -3,0c0,0 -1,0 -2,0c0,0 -1,0 -2,0c-1,0 -1.292892,0.707108 -2,0c-0.707108,-0.707108 -0.292892,-1.292892 -1,-2c-0.707108,-0.707108 -1.707108,-1.292892 -1,-2c0.707108,-0.707108 2,0 2,0c0,-1 2,-1 3,-1c1,0 2,0 3,0c1,0 2,0 3,0c1,0 2,0 3,0c1,0 2,0 2,0c0,1 0.61731,1.076118 1,2c0.541199,1.306564 1.458801,0.693436 2,2c0.38269,0.923882 0.292892,1.292892 1,2c0.707108,0.707108 0,2 0,3c0,0 0,1 0,2c0,0 0,1 0,2c0,1 0,1 0,2c0,1 -1,1 -1,2c0,0 -0.292892,0.292892 -1,1c-0.707108,0.707108 -1.292892,0.292892 -2,1c-0.707108,0.707108 0.306564,1.458801 -1,2c-0.923874,0.38269 -1.292892,0.292892 -2,1c-0.707108,0.707108 -1.693436,0.458801 -3,1c-0.923874,0.38269 -2.076126,0.61731 -3,1c-1.306564,0.541199 -2,1 -2,1c-1,0 -2,0 -2,0c0,1 -1,1 -2,1c-1,0 -2,0 -2,-1c0,-1 0,-1 0,-2c0,-1 1.292892,-0.292892 2,-1c0.707108,-0.707108 1,-1 2,-1c1,0 0.292892,-0.292892 1,-1c0.707108,-0.707108 2,0 3,0c0,0 1,0 2,0c0,0 1.292892,-0.707108 2,0c0.707108,0.707108 0.292892,1.292892 1,2c0.707108,0.707108 1,1 1,2c0,1 0.61731,1.076126 1,2c0.541199,1.306564 0.61731,3.076126 1,4c0.541199,1.306564 1,2 1,3c0,1 1,1 1,2c0,1 0,1 0,2c0,1 0,1 0,2c0,1 0.707108,1.292892 0,2c-0.707108,0.707108 -0.292892,1.292892 -1,2c-0.707108,0.707108 -1.292892,0.292892 -2,1c-0.707108,0.707108 -0.292892,1.292892 -1,2c-0.707108,0.707108 -1.292892,0.292892 -2,1c-0.707108,0.707108 -1.292892,0.292892 -2,1c-0.707108,0.707108 -1,1 -2,1c0,0 -1,0 -2,0c0,0 -1,0 -2,0c-1,0 -1.292892,-0.292892 -2,-1c-0.707108,-0.707108 -0.61731,-2.076126 -1,-3c-0.541199,-1.306564 -1.707108,-1.292892 -1,-2c0.707108,-0.707108 2,0 3,0c0,0 1,0 2,0c1,0 1,0 2,0c1,0 1,0 2,0c1,0 2.292892,-0.707108 3,0c0.707108,0.707108 0.61731,1.076126 1,2c0.541199,1.306564 1.292892,1.292892 2,2c0.707108,0.707108 0.458801,0.693436 1,2c0.38269,0.923874 0.292892,1.292892 1,2c0.707108,0.707108 -0.707108,1.292892 0,2c0.707108,0.707108 1,1 1,2c0,1 0,1 0,2c0,1 0.707108,2.292892 0,3c-0.707108,0.707108 -0.61731,1.076126 -1,2c-0.541199,1.306564 -1.458801,0.693436 -2,2c-0.38269,0.923874 -1.292892,2.292892 -2,3c-0.707108,0.707108 -1,1 -2,1c-1,0 -1,1 -2,1c-1,0 -2,0 -3,0c-1,0 -2,0 -3,0c0,0 -1.292892,0.707108 -2,0c-0.707108,-0.707108 -0.292892,-1.292892 -1,-2c-0.707108,-0.707108 -1.292892,-0.292892 -2,-1c-0.707108,-0.707108 -1,-1 -1,-2c0,-1 0,-2 0,-2c0,-1 1,-1 2,-1c0,0 1,-1 3,-1c1,0 2,0 2,0c1,0 2,0 3,0c0,0 1.292892,-0.707108 2,0c0.707108,0.707108 0.292892,1.292892 1,2c0.707108,0.707108 1.292892,0.292892 2,1c0.707108,0.707108 0.292892,1.292892 1,2c0.707108,0.707108 0.458801,1.693436 1,3c0.38269,0.923874 0,3 0,4c0,0 0,1 0,2c0,1 0,1 0,2c0,1 0,2 0,2c0,1 0.38269,2.076126 0,3c-0.541199,1.306564 -1.458801,1.693436 -2,3c-0.38269,0.923874 -0.292892,2.292892 -1,3c-0.707108,0.707108 -1.076126,0.61731 -2,1c-1.306564,0.541199 -2,1 -2,1c-1,0 -1,1 -2,1c-1,0 -1,0 -2,0c-1,0 -1,0 -2,0c-1,0 -2,0 -3,0c0,0 -1,0 -2,0l0,-1l-1,0l-1,0" id="svg_1" stroke-width="1.5" stroke="#000" fill="none"/>
  <line stroke-linecap="undefined" stroke-linejoin="undefined" id="svg_2" y2="214" x2="190.5" y1="96" x1="190.5" stroke-width="1.5" stroke="#000" fill="none"/>
  <line stroke-linecap="undefined" stroke-linejoin="undefined" id="svg_3" y2="214" x2="204.5" y1="93" x1="204.5" stroke-width="1.5" stroke="#000" fill="none"/>
  <path transform="rotate(179.41510009765625 230.15713500976562,154.3831787109375) " d="m219.5,99c1,0 3,0 6,0c1,0 3,0 4,0c1,0 3.14935,-0.52573 4,0c1.90211,1.17557 2,2 3,2c1,0 1.69344,0.4588 3,1c0.92387,0.38268 2,0 3,1c0,0 0.29289,0.29289 1,1c0.70711,0.70711 0,1 0,2c0,1 0,1 0,2c0,1 0,2 0,3c0,0 0,1 0,2c0,1 0,1 0,2c0,1 -0.29289,1.29289 -1,2c-0.70711,0.70711 -1,1 -1,2c0,0 0.17625,1.48626 -2,2c-0.97325,0.22975 -1.29289,0.29289 -2,1c-0.70711,0.70711 -0.29289,1.29289 -1,2c-0.70711,0.70711 -1.29289,0.29289 -2,1c-0.70711,0.70711 -2,0 -3,0c0,0 -1,0 -2,0c0,0 -1,0 -2,0c-1,0 -1.29289,0.70711 -2,0c-0.70711,-0.70711 -0.29289,-1.29289 -1,-2c-0.70711,-0.70711 -1.70711,-1.29289 -1,-2c0.70711,-0.70711 2,0 2,0c0,-1 2,-1 3,-1c1,0 2,0 3,0c1,0 2,0 3,0c1,0 2,0 3,0c1,0 2,0 2,0c0,1 0.61731,1.07612 1,2c0.5412,1.30656 1.4588,0.69344 2,2c0.38269,0.92388 0.29289,1.29289 1,2c0.70711,0.70711 0,2 0,3c0,0 0,1 0,2c0,0 0,1 0,2c0,1 0,1 0,2c0,1 -1,1 -1,2c0,0 -0.29289,0.29289 -1,1c-0.70711,0.70711 -1.29289,0.29289 -2,1c-0.70711,0.70711 0.30656,1.4588 -1,2c-0.92387,0.38269 -1.29289,0.29289 -2,1c-0.70711,0.70711 -1.69344,0.4588 -3,1c-0.92387,0.38269 -2.07613,0.61731 -3,1c-1.30656,0.5412 -2,1 -2,1c-1,0 -2,0 -2,0c0,1 -1,1 -2,1c-1,0 -2,0 -2,-1c0,-1 0,-1 0,-2c0,-1 1.29289,-0.29289 2,-1c0.70711,-0.70711 1,-1 2,-1c1,0 0.29289,-0.29289 1,-1c0.70711,-0.70711 2,0 3,0c0,0 1,0 2,0c0,0 1.29289,-0.70711 2,0c0.70711,0.70711 0.29289,1.29289 1,2c0.70711,0.70711 1,1 1,2c0,1 0.61731,1.07613 1,2c0.5412,1.30656 0.61731,3.07613 1,4c0.5412,1.30656 1,2 1,3c0,1 1,1 1,2c0,1 0,1 0,2c0,1 0,1 0,2c0,1 0.70711,1.29289 0,2c-0.70711,0.70711 -0.29289,1.29289 -1,2c-0.70711,0.70711 -1.29289,0.29289 -2,1c-0.70711,0.70711 -0.29289,1.29289 -1,2c-0.70711,0.70711 -1.29289,0.29289 -2,1c-0.70711,0.70711 -1.29289,0.29289 -2,1c-0.70711,0.70711 -1,1 -2,1c0,0 -1,0 -2,0c0,0 -1,0 -2,0c-1,0 -1.29289,-0.29289 -2,-1c-0.70711,-0.70711 -0.61731,-2.07613 -1,-3c-0.5412,-1.30656 -1.70711,-1.29289 -1,-2c0.70711,-0.70711 2,0 3,0c0,0 1,0 2,0c1,0 1,0 2,0c1,0 1,0 2,0c1,0 2.29289,-0.70711 3,0c0.70711,0.70711 0.61731,1.07613 1,2c0.5412,1.30656 1.29289,1.29289 2,2c0.70711,0.70711 0.4588,0.69344 1,2c0.38269,0.92387 0.29289,1.29289 1,2c0.70711,0.70711 -0.70711,1.29289 0,2c0.70711,0.70711 1,1 1,2c0,1 0,1 0,2c0,1 0.70711,2.29289 0,3c-0.70711,0.70711 -0.61731,1.07613 -1,2c-0.5412,1.30656 -1.4588,0.69344 -2,2c-0.38269,0.92387 -1.29289,2.29289 -2,3c-0.70711,0.70711 -1,1 -2,1c-1,0 -1,1 -2,1c-1,0 -2,0 -3,0c-1,0 -2,0 -3,0c0,0 -1.29289,0.70711 -2,0c-0.70711,-0.70711 -0.29289,-1.29289 -1,-2c-0.70711,-0.70711 -1.29289,-0.29289 -2,-1c-0.70711,-0.70711 -1,-1 -1,-2c0,-1 0,-2 0,-2c0,-1 1,-1 2,-1c0,0 1,-1 3,-1c1,0 2,0 2,0c1,0 2,0 3,0c0,0 1.29289,-0.70711 2,0c0.70711,0.70711 0.29289,1.29289 1,2c0.70711,0.70711 1.29289,0.29289 2,1c0.70711,0.70711 0.29289,1.29289 1,2c0.70711,0.70711 0.4588,1.69344 1,3c0.38269,0.92387 0,3 0,4c0,0 0,1 0,2c0,1 0,1 0,2c0,1 0,2 0,2c0,1 0.38269,2.07613 0,3c-0.5412,1.30656 -1.4588,1.69344 -2,3c-0.38269,0.92387 -0.29289,2.29289 -1,3c-0.70711,0.70711 -1.07613,0.61731 -2,1c-1.30656,0.5412 -2,1 -2,1c-1,0 -1,1 -2,1c-1,0 -1,0 -2,0c-1,0 -1,0 -2,0c-1,0 -2,0 -3,0c0,0 -1,0 -2,0l0,-1l-1,0l-1,0" id="svg_4" stroke-width="1.5" stroke="#000" fill="none"/>
  <rect id="svg_5" height="144" width="123" y="83" x="135.5" fill-opacity="null" stroke-opacity="null" stroke-width="1.5" stroke="#000" fill="none"/>
 </g>
</svg>