<svg width="240" height="400" xmlns="http://www.w3.org/2000/svg">
 <!-- Created with Method Draw - http://github.com/duopixel/Method-Draw/ -->

 <g>
  <title>background</title>
  <rect x="-1" y="-1" width="242" height="402" id="canvas_background" fill="#fff"/>
  <g id="canvasGrid" display="none">
   <rect id="svg_6" width="100%" height="100%" x="0" y="0" stroke-width="0" fill="url(#gridpattern)"/>
  </g>
 </g>
 <g>
  <title>Layer 1</title>
  <path fill="none" stroke="#000" stroke-width="1.5" id="svg_1" d="m78.5,135c1,0 3,0 6,0c1,0 3,0 4,0c1,0 3.14935,-0.52573 4,0c1.90212,1.17557 2,2 3,2c1,0 1.69344,0.4588 3,1c0.92387,0.38268 2,0 3,1c0,0 0.29289,0.29289 1,1c0.70711,0.70711 0,1 0,2c0,1 0,1 0,2c0,1 0,2 0,3c0,0 0,1 0,2c0,1 0,1 0,2c0,1 -0.29289,1.29289 -1,2c-0.70711,0.70711 -1,1 -1,2c0,0 0.17625,1.48626 -2,2c-0.97325,0.22975 -1.29289,0.29289 -2,1c-0.70711,0.70711 -0.29289,1.29289 -1,2c-0.70711,0.70711 -1.29289,0.29289 -2,1c-0.70711,0.70711 -2,0 -3,0c0,0 -1,0 -2,0c0,0 -1,0 -2,0c-1,0 -1.29289,0.70711 -2,0c-0.70711,-0.70711 -0.29289,-1.29289 -1,-2c-0.70711,-0.70711 -1.70711,-1.29289 -1,-2c0.70711,-0.70711 2,0 2,0c0,-1 2,-1 3,-1c1,0 2,0 3,0c1,0 2,0 3,0c1,0 2,0 3,0c1,0 2,0 2,0c0,1 0.61731,1.07612 1,2c0.5412,1.30656 1.4588,0.69344 2,2c0.38269,0.92388 0.29289,1.29289 1,2c0.70711,0.70711 0,2 0,3c0,0 0,1 0,2c0,0 0,1 0,2c0,1 0,1 0,2c0,1 -1,1 -1,2c0,0 -0.29289,0.29289 -1,1c-0.70711,0.70711 -1.29289,0.29289 -2,1c-0.70711,0.70711 0.30656,1.4588 -1,2c-0.92387,0.38269 -1.29289,0.29289 -2,1c-0.70711,0.70711 -1.69344,0.4588 -3,1c-0.92387,0.38269 -2.07613,0.61731 -3,1c-1.30656,0.5412 -2,1 -2,1c-1,0 -2,0 -2,0c0,1 -1,1 -2,1c-1,0 -2,0 -2,-1c0,-1 0,-1 0,-2c0,-1 1.29289,-0.29289 2,-1c0.70711,-0.70711 1,-1 2,-1c1,0 0.29289,-0.29289 1,-1c0.70711,-0.70711 2,0 3,0c0,0 1,0 2,0c0,0 1.29289,-0.70711 2,0c0.70711,0.70711 0.29289,1.29289 1,2c0.70711,0.70711 1,1 1,2c0,1 0.61731,1.07613 1,2c0.5412,1.30656 0.61731,3.07613 1,4c0.5412,1.30656 1,2 1,3c0,1 1,1 1,2c0,1 0,1 0,2c0,1 0,1 0,2c0,1 0.70711,1.29289 0,2c-0.70711,0.70711 -0.29289,1.29289 -1,2c-0.70711,0.70711 -1.29289,0.29289 -2,1c-0.70711,0.70711 -0.29289,1.29289 -1,2c-0.70711,0.70711 -1.29289,0.29289 -2,1c-0.70711,0.70711 -1.29289,0.29289 -2,1c-0.70711,0.70711 -1,1 -2,1c0,0 -1,0 -2,0c0,0 -1,0 -2,0c-1,0 -1.29289,-0.29289 -2,-1c-0.70711,-0.70711 -0.61731,-2.07613 -1,-3c-0.5412,-1.30656 -1.70711,-1.29289 -1,-2c0.70711,-0.70711 2,0 3,0c0,0 1,0 2,0c1,0 1,0 2,0c1,0 1,0 2,0c1,0 2.29289,-0.70711 3,0c0.70711,0.70711 0.61731,1.07613 1,2c0.5412,1.30656 1.29289,1.29289 2,2c0.70711,0.70711 0.4588,0.69344 1,2c0.38269,0.92387 0.29289,1.29289 1,2c0.70711,0.70711 -0.70711,1.29289 0,2c0.70711,0.70711 1,1 1,2c0,1 0,1 0,2c0,1 0.70711,2.29289 0,3c-0.70711,0.70711 -0.61731,1.07613 -1,2c-0.5412,1.30656 -1.4588,0.69344 -2,2c-0.38269,0.92387 -1.29289,2.29289 -2,3c-0.70711,0.70711 -1,1 -2,1c-1,0 -1,1 -2,1c-1,0 -2,0 -3,0c-1,0 -2,0 -3,0c0,0 -1.29289,0.70711 -2,0c-0.70711,-0.70711 -0.29289,-1.29289 -1,-2c-0.70711,-0.70711 -1.29289,-0.29289 -2,-1c-0.70711,-0.70711 -1,-1 -1,-2c0,-1 0,-2 0,-2c0,-1 1,-1 2,-1c0,0 1,-1 3,-1c1,0 2,0 2,0c1,0 2,0 3,0c0,0 1.29289,-0.70711 2,0c0.70711,0.70711 0.29289,1.29289 1,2c0.70711,0.70711 1.29289,0.29289 2,1c0.70711,0.70711 0.29289,1.29289 1,2c0.70711,0.70711 0.4588,1.69344 1,3c0.38269,0.92387 0,3 0,4c0,0 0,1 0,2c0,1 0,1 0,2c0,1 0,2 0,2c0,1 0.38269,2.07613 0,3c-0.5412,1.30656 -1.4588,1.69344 -2,3c-0.38269,0.92387 -0.29289,2.29289 -1,3c-0.70711,0.70711 -1.07613,0.61731 -2,1c-1.30656,0.5412 -2,1 -2,1c-1,0 -1,1 -2,1c-1,0 -1,0 -2,0c-1,0 -1,0 -2,0c-1,0 -2,0 -3,0c0,0 -1,0 -2,0l0,-1l-1,0l-1,0"/>
  <line fill="none" stroke="#000" stroke-width="1.5" x1="115.5" y1="133" x2="115.5" y2="251" id="svg_2" stroke-linejoin="undefined" stroke-linecap="undefined"/>
  <line fill="none" stroke="#000" stroke-width="1.5" x1="129.5" y1="130" x2="129.5" y2="251" id="svg_3" stroke-linejoin="undefined" stroke-linecap="undefined"/>
  <path fill="none" stroke="#000" stroke-width="1.5" id="svg_4" d="m144.5,136c1,0 3,0 6,0c1,0 3,0 4,0c1,0 3.14935,-0.52573 4,0c1.90211,1.17557 2,2 3,2c1,0 1.69344,0.4588 3,1c0.92387,0.38268 2,0 3,1c0,0 0.29289,0.29289 1,1c0.70711,0.70711 0,1 0,2c0,1 0,1 0,2c0,1 0,2 0,3c0,0 0,1 0,2c0,1 0,1 0,2c0,1 -0.29289,1.29289 -1,2c-0.70711,0.70711 -1,1 -1,2c0,0 0.17625,1.48626 -2,2c-0.97325,0.22975 -1.29289,0.29289 -2,1c-0.70711,0.70711 -0.29289,1.29289 -1,2c-0.70711,0.70711 -1.29289,0.29289 -2,1c-0.70711,0.70711 -2,0 -3,0c0,0 -1,0 -2,0c0,0 -1,0 -2,0c-1,0 -1.29289,0.70711 -2,0c-0.70711,-0.70711 -0.29289,-1.29289 -1,-2c-0.70711,-0.70711 -1.70711,-1.29289 -1,-2c0.70711,-0.70711 2,0 2,0c0,-1 2,-1 3,-1c1,0 2,0 3,0c1,0 2,0 3,0c1,0 2,0 3,0c1,0 2,0 2,0c0,1 0.61731,1.07612 1,2c0.5412,1.30656 1.4588,0.69344 2,2c0.38269,0.92388 0.29289,1.29289 1,2c0.70711,0.70711 0,2 0,3c0,0 0,1 0,2c0,0 0,1 0,2c0,1 0,1 0,2c0,1 -1,1 -1,2c0,0 -0.29289,0.29289 -1,1c-0.70711,0.70711 -1.29289,0.29289 -2,1c-0.70711,0.70711 0.30656,1.4588 -1,2c-0.92387,0.38269 -1.29289,0.29289 -2,1c-0.70711,0.70711 -1.69344,0.4588 -3,1c-0.92387,0.38269 -2.07613,0.61731 -3,1c-1.30656,0.5412 -2,1 -2,1c-1,0 -2,0 -2,0c0,1 -1,1 -2,1c-1,0 -2,0 -2,-1c0,-1 0,-1 0,-2c0,-1 1.29289,-0.29289 2,-1c0.70711,-0.70711 1,-1 2,-1c1,0 0.29289,-0.29289 1,-1c0.70711,-0.70711 2,0 3,0c0,0 1,0 2,0c0,0 1.29289,-0.70711 2,0c0.70711,0.70711 0.29289,1.29289 1,2c0.70711,0.70711 1,1 1,2c0,1 0.61731,1.07613 1,2c0.5412,1.30656 0.61731,3.07613 1,4c0.5412,1.30656 1,2 1,3c0,1 1,1 1,2c0,1 0,1 0,2c0,1 0,1 0,2c0,1 0.70711,1.29289 0,2c-0.70711,0.70711 -0.29289,1.29289 -1,2c-0.70711,0.70711 -1.29289,0.29289 -2,1c-0.70711,0.70711 -0.29289,1.29289 -1,2c-0.70711,0.70711 -1.29289,0.29289 -2,1c-0.70711,0.70711 -1.29289,0.29289 -2,1c-0.70711,0.70711 -1,1 -2,1c0,0 -1,0 -2,0c0,0 -1,0 -2,0c-1,0 -1.29289,-0.29289 -2,-1c-0.70711,-0.70711 -0.61731,-2.07613 -1,-3c-0.5412,-1.30656 -1.70711,-1.29289 -1,-2c0.70711,-0.70711 2,0 3,0c0,0 1,0 2,0c1,0 1,0 2,0c1,0 1,0 2,0c1,0 2.29289,-0.70711 3,0c0.70711,0.70711 0.61731,1.07613 1,2c0.5412,1.30656 1.29289,1.29289 2,2c0.70711,0.70711 0.4588,0.69344 1,2c0.38269,0.92387 0.29289,1.29289 1,2c0.70711,0.70711 -0.70711,1.29289 0,2c0.70711,0.70711 1,1 1,2c0,1 0,1 0,2c0,1 0.70711,2.29289 0,3c-0.70711,0.70711 -0.61731,1.07613 -1,2c-0.5412,1.30656 -1.4588,0.69344 -2,2c-0.38269,0.92387 -1.29289,2.29289 -2,3c-0.70711,0.70711 -1,1 -2,1c-1,0 -1,1 -2,1c-1,0 -2,0 -3,0c-1,0 -2,0 -3,0c0,0 -1.29289,0.70711 -2,0c-0.70711,-0.70711 -0.29289,-1.29289 -1,-2c-0.70711,-0.70711 -1.29289,-0.29289 -2,-1c-0.70711,-0.70711 -1,-1 -1,-2c0,-1 0,-2 0,-2c0,-1 1,-1 2,-1c0,0 1,-1 3,-1c1,0 2,0 2,0c1,0 2,0 3,0c0,0 1.29289,-0.70711 2,0c0.70711,0.70711 0.29289,1.29289 1,2c0.70711,0.70711 1.29289,0.29289 2,1c0.70711,0.70711 0.29289,1.29289 1,2c0.70711,0.70711 0.4588,1.69344 1,3c0.38269,0.92387 0,3 0,4c0,0 0,1 0,2c0,1 0,1 0,2c0,1 0,2 0,2c0,1 0.38269,2.07613 0,3c-0.5412,1.30656 -1.4588,1.69344 -2,3c-0.38269,0.92387 -0.29289,2.29289 -1,3c-0.70711,0.70711 -1.07613,0.61731 -2,1c-1.30656,0.5412 -2,1 -2,1c-1,0 -1,1 -2,1c-1,0 -1,0 -2,0c-1,0 -1,0 -2,0c-1,0 -2,0 -3,0c0,0 -1,0 -2,0l0,-1l-1,0l-1,0" transform="rotate(179.41510009765625 155.15713500976565,191.38317871093747) "/>
  <rect fill="none" stroke="#000" stroke-width="1.5" stroke-opacity="null" fill-opacity="null" x="60.5" y="120" width="123" height="144" id="svg_5"/>
 </g>
</svg>