<svg width="70" height="70" xmlns="http://www.w3.org/2000/svg">
 <!-- Created with Method Draw - http://github.com/duopixel/Method-Draw/ -->

 <g>
  <title>background</title>
  <rect fill="#fff" id="canvas_background" height="72" width="72" y="-1" x="-1"/>
  <g display="none" id="canvasGrid">
   <rect fill="url(#gridpattern)" stroke-width="0" y="0" x="0" height="100%" width="100%" id="svg_6"/>
  </g>
 </g>
 <g>
  <title>Layer 1</title>
  <path stroke="#000" d="m18.523012,12.86346c0.341004,0 1.023012,0 2.046023,0c0.341004,0 1.023012,0 1.364015,0c0.341004,0 1.073941,-0.218517 1.364015,0c0.64863,0.488619 0.682008,0.831289 1.023012,0.831289c0.341004,0 0.57747,0.190698 1.023012,0.415645c0.315043,0.159059 0.682008,0 1.023012,0.415645c0,0 0.099877,0.121738 0.341004,0.415645c0.241127,0.293906 0,0.415645 0,0.831289c0,0.415645 0,0.415645 0,0.831289c0,0.415645 0,0.831289 0,1.246934c0,0 0,0.415645 0,0.831289c0,0.415645 0,0.415645 0,0.831289c0,0.415645 -0.099877,0.537383 -0.341004,0.831289c-0.241127,0.293906 -0.341004,0.415645 -0.341004,0.831289c0,0 0.060102,0.617756 -0.682008,0.831289c-0.331882,0.095494 -0.44088,0.121738 -0.682008,0.415645c-0.241127,0.293906 -0.099877,0.537383 -0.341004,0.831289c-0.241127,0.293906 -0.44088,0.121738 -0.682008,0.415645c-0.241127,0.293906 -0.682008,0 -1.023012,0c0,0 -0.341004,0 -0.682008,0c0,0 -0.341004,0 -0.682008,0c-0.341004,0 -0.44088,0.293906 -0.682008,0c-0.241127,-0.293906 -0.099877,-0.537383 -0.341004,-0.831289c-0.241127,-0.293906 -0.582131,-0.537383 -0.341004,-0.831289c0.241127,-0.293906 0.682008,0 0.682008,0c0,-0.415645 0.682008,-0.415645 1.023012,-0.415645c0.341004,0 0.682008,0 1.023012,0c0.341004,0 0.682008,0 1.023012,0c0.341004,0 0.682008,0 1.023012,0c0.341004,0 0.682008,0 0.682008,0c0,0.415645 0.210505,0.447283 0.341004,0.831289c0.184551,0.543064 0.497456,0.288225 0.682008,0.831289c0.130499,0.384006 0.099877,0.537383 0.341004,0.831289c0.241127,0.293906 0,0.831289 0,1.246934c0,0 0,0.415645 0,0.831289c0,0 0,0.415645 0,0.831289c0,0.415645 0,0.415645 0,0.831289c0,0.415645 -0.341004,0.415645 -0.341004,0.831289c0,0 -0.099877,0.121738 -0.341004,0.415645c-0.241127,0.293906 -0.44088,0.121738 -0.682008,0.415645c-0.241127,0.293906 0.104538,0.606342 -0.341004,0.831289c-0.315043,0.159063 -0.44088,0.121738 -0.682008,0.415645c-0.241127,0.293906 -0.57747,0.190698 -1.023012,0.415645c-0.315043,0.159063 -0.707968,0.256582 -1.023012,0.415645c-0.445542,0.224947 -0.682008,0.415645 -0.682008,0.415645c-0.341004,0 -0.682008,0 -0.682008,0c0,0.415645 -0.341004,0.415645 -0.682008,0.415645c-0.341004,0 -0.682008,0 -0.682008,-0.415645c0,-0.415645 0,-0.415645 0,-0.831289c0,-0.415645 0.44088,-0.121738 0.682008,-0.415645c0.241127,-0.293906 0.341004,-0.415645 0.682008,-0.415645c0.341004,0 0.099877,-0.121738 0.341004,-0.415645c0.241127,-0.293906 0.682008,0 1.023012,0c0,0 0.341004,0 0.682008,0c0,0 0.44088,-0.293906 0.682008,0c0.241127,0.293906 0.099877,0.537383 0.341004,0.831289c0.241127,0.293906 0.341004,0.415645 0.341004,0.831289c0,0.415645 0.210505,0.447288 0.341004,0.831289c0.184551,0.543064 0.210505,1.278577 0.341004,1.662578c0.184551,0.543064 0.341004,0.831289 0.341004,1.246934c0,0.415645 0.341004,0.415645 0.341004,0.831289c0,0.415645 0,0.415645 0,0.831289c0,0.415645 0,0.415645 0,0.831289c0,0.415645 0.241127,0.537383 0,0.831289c-0.241127,0.293906 -0.099877,0.537383 -0.341004,0.831289c-0.241127,0.293906 -0.44088,0.121738 -0.682008,0.415645c-0.241127,0.293906 -0.099877,0.537383 -0.341004,0.831289c-0.241127,0.293906 -0.44088,0.121738 -0.682008,0.415645c-0.241127,0.293906 -0.44088,0.121738 -0.682008,0.415645c-0.241127,0.293906 -0.341004,0.415645 -0.682008,0.415645c0,0 -0.341004,0 -0.682008,0c0,0 -0.341004,0 -0.682008,0c-0.341004,0 -0.44088,-0.121738 -0.682008,-0.415645c-0.241127,-0.293906 -0.210505,-0.862932 -0.341004,-1.246934c-0.184551,-0.543064 -0.582131,-0.537383 -0.341004,-0.831289c0.241127,-0.293906 0.682008,0 1.023012,0c0,0 0.341004,0 0.682008,0c0.341004,0 0.341004,0 0.682008,0c0.341004,0 0.341004,0 0.682008,0c0.341004,0 0.781884,-0.293906 1.023012,0c0.241127,0.293906 0.210505,0.447288 0.341004,0.831289c0.184551,0.543064 0.44088,0.537383 0.682008,0.831289c0.241127,0.293906 0.156453,0.288225 0.341004,0.831289c0.130499,0.384001 0.099877,0.537383 0.341004,0.831289c0.241127,0.293906 -0.241127,0.537383 0,0.831289c0.241127,0.293906 0.341004,0.415645 0.341004,0.831289c0,0.415645 0,0.415645 0,0.831289c0,0.415645 0.241127,0.953027 0,1.246934c-0.241127,0.293906 -0.210505,0.447288 -0.341004,0.831289c-0.184551,0.543064 -0.497456,0.288225 -0.682008,0.831289c-0.130499,0.384001 -0.44088,0.953027 -0.682008,1.246934c-0.241127,0.293906 -0.341004,0.415645 -0.682008,0.415645c-0.341004,0 -0.341004,0.415645 -0.682008,0.415645c-0.341004,0 -0.682008,0 -1.023012,0c-0.341004,0 -0.682008,0 -1.023012,0c0,0 -0.44088,0.293906 -0.682008,0c-0.241127,-0.293906 -0.099877,-0.537383 -0.341004,-0.831289c-0.241127,-0.293906 -0.44088,-0.121738 -0.682008,-0.415645c-0.241127,-0.293906 -0.341004,-0.415645 -0.341004,-0.831289c0,-0.415645 0,-0.831289 0,-0.831289c0,-0.415645 0.341004,-0.415645 0.682008,-0.415645c0,0 0.341004,-0.415645 1.023012,-0.415645c0.341004,0 0.682008,0 0.682008,0c0.341004,0 0.682008,0 1.023012,0c0,0 0.44088,-0.293906 0.682008,0c0.241127,0.293906 0.099877,0.537383 0.341004,0.831289c0.241127,0.293906 0.44088,0.121738 0.682008,0.415645c0.241127,0.293906 0.099877,0.537383 0.341004,0.831289c0.241127,0.293906 0.156453,0.703869 0.341004,1.246934c0.130499,0.384001 0,1.246934 0,1.662578c0,0 0,0.415645 0,0.831289c0,0.415645 0,0.415645 0,0.831289c0,0.415645 0,0.831289 0,0.831289c0,0.415645 0.130499,0.862932 0,1.246934c-0.184551,0.543064 -0.497456,0.703869 -0.682008,1.246934c-0.130499,0.384001 -0.099877,0.953027 -0.341004,1.246934c-0.241127,0.293906 -0.366964,0.256582 -0.682008,0.415645c-0.445542,0.224947 -0.682008,0.415645 -0.682008,0.415645c-0.341004,0 -0.341004,0.415645 -0.682008,0.415645c-0.341004,0 -0.341004,0 -0.682008,0c-0.341004,0 -0.341004,0 -0.682008,0c-0.341004,0 -0.682008,0 -1.023012,0c0,0 -0.341004,0 -0.682008,0l0,-0.415645l-0.341004,0l-0.341004,0" id="svg_1" stroke-width="1.5" fill="none"/>
  <line stroke="#000" stroke-linecap="undefined" stroke-linejoin="undefined" id="svg_2" y2="57" x2="33.5" y1="13.000001" x1="33.5" stroke-width="1.5" fill="none"/>
  <line stroke="#000" stroke-linecap="undefined" stroke-linejoin="undefined" id="svg_3" y2="57" x2="39.5" y1="12.999998" x1="39.5" stroke-width="1.5" fill="none"/>
  <path stroke="#000" transform="rotate(179.41510009765625 49.157135009765625,35.38317108154296) " d="m45.785518,12.76816c0.316372,0 0.949115,0 1.898231,0c0.316372,0 0.949115,0 1.265487,0c0.316372,0 0.996366,-0.214675 1.265487,0c0.601774,0.480029 0.632744,0.816674 0.949115,0.816674c0.316372,0 0.535757,0.187345 0.949115,0.408337c0.292286,0.156262 0.632744,0 0.949115,0.408337c0,0 0.092662,0.119598 0.316372,0.408337c0.22371,0.288739 0,0.408337 0,0.816674c0,0.408337 0,0.408337 0,0.816674c0,0.408337 0,0.816674 0,1.225012c0,0 0,0.408337 0,0.816674c0,0.408337 0,0.408337 0,0.816674c0,0.408337 -0.092662,0.527935 -0.316372,0.816674c-0.22371,0.288739 -0.316372,0.408337 -0.316372,0.816674c0,0 0.055761,0.606895 -0.632744,0.816674c-0.307909,0.093815 -0.409034,0.119598 -0.632744,0.408337c-0.22371,0.288739 -0.092662,0.527935 -0.316372,0.816674c-0.22371,0.288739 -0.409034,0.119598 -0.632744,0.408337c-0.22371,0.288739 -0.632744,0 -0.949115,0c0,0 -0.316372,0 -0.632744,0c0,0 -0.316372,0 -0.632744,0c-0.316372,0 -0.409034,0.288739 -0.632744,0c-0.22371,-0.288739 -0.092662,-0.527935 -0.316372,-0.816674c-0.22371,-0.288739 -0.540081,-0.527935 -0.316372,-0.816674c0.22371,-0.288739 0.632744,0 0.632744,0c0,-0.408337 0.632744,-0.408337 0.949115,-0.408337c0.316372,0 0.632744,0 0.949115,0c0.316372,0 0.632744,0 0.949115,0c0.316372,0 0.632744,0 0.949115,0c0.316372,0 0.632744,0 0.632744,0c0,0.408337 0.195299,0.43942 0.316372,0.816674c0.17122,0.533517 0.461523,0.283157 0.632744,0.816674c0.121072,0.377255 0.092662,0.527935 0.316372,0.816674c0.22371,0.288739 0,0.816674 0,1.225012c0,0 0,0.408337 0,0.816674c0,0 0,0.408337 0,0.816674c0,0.408337 0,0.408337 0,0.816674c0,0.408337 -0.316372,0.408337 -0.316372,0.816674c0,0 -0.092662,0.119598 -0.316372,0.408337c-0.22371,0.288739 -0.409034,0.119598 -0.632744,0.408337c-0.22371,0.288739 0.096987,0.595682 -0.316372,0.816674c-0.292286,0.156267 -0.409034,0.119598 -0.632744,0.408337c-0.22371,0.288739 -0.535757,0.187345 -0.949115,0.408337c-0.292286,0.156267 -0.656829,0.252071 -0.949115,0.408337c-0.413359,0.220992 -0.632744,0.408337 -0.632744,0.408337c-0.316372,0 -0.632744,0 -0.632744,0c0,0.408337 -0.316372,0.408337 -0.632744,0.408337c-0.316372,0 -0.632744,0 -0.632744,-0.408337c0,-0.408337 0,-0.408337 0,-0.816674c0,-0.408337 0.409034,-0.119598 0.632744,-0.408337c0.22371,-0.288739 0.316372,-0.408337 0.632744,-0.408337c0.316372,0 0.092662,-0.119598 0.316372,-0.408337c0.22371,-0.288739 0.632744,0 0.949115,0c0,0 0.316372,0 0.632744,0c0,0 0.409034,-0.288739 0.632744,0c0.22371,0.288739 0.092662,0.527935 0.316372,0.816674c0.22371,0.288739 0.316372,0.408337 0.316372,0.816674c0,0.408337 0.195299,0.439424 0.316372,0.816674c0.17122,0.533517 0.195299,1.256098 0.316372,1.633349c0.17122,0.533517 0.316372,0.816674 0.316372,1.225012c0,0.408337 0.316372,0.408337 0.316372,0.816674c0,0.408337 0,0.408337 0,0.816674c0,0.408337 0,0.408337 0,0.816674c0,0.408337 0.22371,0.527935 0,0.816674c-0.22371,0.288739 -0.092662,0.527935 -0.316372,0.816674c-0.22371,0.288739 -0.409034,0.119598 -0.632744,0.408337c-0.22371,0.288739 -0.092662,0.527935 -0.316372,0.816674c-0.22371,0.288739 -0.409034,0.119598 -0.632744,0.408337c-0.22371,0.288739 -0.409034,0.119598 -0.632744,0.408337c-0.22371,0.288739 -0.316372,0.408337 -0.632744,0.408337c0,0 -0.316372,0 -0.632744,0c0,0 -0.316372,0 -0.632744,0c-0.316372,0 -0.409034,-0.119598 -0.632744,-0.408337c-0.22371,-0.288739 -0.195299,-0.847761 -0.316372,-1.225012c-0.17122,-0.533517 -0.540081,-0.527935 -0.316372,-0.816674c0.22371,-0.288739 0.632744,0 0.949115,0c0,0 0.316372,0 0.632744,0c0.316372,0 0.316372,0 0.632744,0c0.316372,0 0.316372,0 0.632744,0c0.316372,0 0.725406,-0.288739 0.949115,0c0.22371,0.288739 0.195299,0.439424 0.316372,0.816674c0.17122,0.533517 0.409034,0.527935 0.632744,0.816674c0.22371,0.288739 0.145151,0.283157 0.316372,0.816674c0.121072,0.377251 0.092662,0.527935 0.316372,0.816674c0.22371,0.288739 -0.22371,0.527935 0,0.816674c0.22371,0.288739 0.316372,0.408337 0.316372,0.816674c0,0.408337 0,0.408337 0,0.816674c0,0.408337 0.22371,0.936272 0,1.225012c-0.22371,0.288739 -0.195299,0.439424 -0.316372,0.816674c-0.17122,0.533517 -0.461523,0.283157 -0.632744,0.816674c-0.121072,0.377251 -0.409034,0.936272 -0.632744,1.225012c-0.22371,0.288739 -0.316372,0.408337 -0.632744,0.408337c-0.316372,0 -0.316372,0.408337 -0.632744,0.408337c-0.316372,0 -0.632744,0 -0.949115,0c-0.316372,0 -0.632744,0 -0.949115,0c0,0 -0.409034,0.288739 -0.632744,0c-0.22371,-0.288739 -0.092662,-0.527935 -0.316372,-0.816674c-0.22371,-0.288739 -0.409034,-0.119598 -0.632744,-0.408337c-0.22371,-0.288739 -0.316372,-0.408337 -0.316372,-0.816674c0,-0.408337 0,-0.816674 0,-0.816674c0,-0.408337 0.316372,-0.408337 0.632744,-0.408337c0,0 0.316372,-0.408337 0.949115,-0.408337c0.316372,0 0.632744,0 0.632744,0c0.316372,0 0.632744,0 0.949115,0c0,0 0.409034,-0.288739 0.632744,0c0.22371,0.288739 0.092662,0.527935 0.316372,0.816674c0.22371,0.288739 0.409034,0.119598 0.632744,0.408337c0.22371,0.288739 0.092662,0.527935 0.316372,0.816674c0.22371,0.288739 0.145151,0.691495 0.316372,1.225012c0.121072,0.377251 0,1.225012 0,1.633349c0,0 0,0.408337 0,0.816674c0,0.408337 0,0.408337 0,0.816674c0,0.408337 0,0.816674 0,0.816674c0,0.408337 0.121072,0.847761 0,1.225012c-0.17122,0.533517 -0.461523,0.691495 -0.632744,1.225012c-0.121072,0.377251 -0.092662,0.936272 -0.316372,1.225012c-0.22371,0.288739 -0.340457,0.252071 -0.632744,0.408337c-0.413359,0.220992 -0.632744,0.408337 -0.632744,0.408337c-0.316372,0 -0.316372,0.408337 -0.632744,0.408337c-0.316372,0 -0.316372,0 -0.632744,0c-0.316372,0 -0.316372,0 -0.632744,0c-0.316372,0 -0.632744,0 -0.949115,0c0,0 -0.316372,0 -0.632744,0l0,-0.408337l-0.316372,0l-0.316372,0" id="svg_4" stroke-width="1.5" fill="none"/>
  <rect stroke="#000" id="svg_5" height="56.999996" width="47.000002" y="7.000003" x="12.499998" fill-opacity="null" stroke-opacity="null" stroke-width="1.5" fill="none"/>
 </g>
</svg>